<svg width="24" height="24" viewBox="0 0 24 24" fill="none" xmlns="http://www.w3.org/2000/svg">
<path d="M2.53767 5.48159C3.58857 3.53269 4.33659 2.07491 6.42022 1.36759C7.84426 0.884183 8.84789 0.870797 10.2674 1.3676C11.918 1.9453 13.7979 2.60665 13.6171 4.36054C13.4593 5.89003 12.0938 6.658 10.5801 6.83218C8.99778 7.01426 6.96397 4.7983 6.96397 4.7983L4.95271 11.0194C4.95271 11.0194 5.82981 10.6778 6.42022 10.6402C7.9036 10.5458 8.32431 10.8442 9.88765 12.2241C10.8141 13.0419 11.757 13.7177 12.4118 14.0333C14.2728 14.9302 16.2556 14.39 18.1694 12.4648C20.6772 9.94212 21.6641 6.9064 20.983 3.80973C20.8391 3.15522 20.896 2.90784 21.2232 2.7649C21.7622 2.52944 22.2124 3.54146 22.5786 4.23222C23.035 5.09293 22.9904 7.11111 22.9904 7.11111C22.9904 7.11111 23.0999 9.49708 22.5786 11.0194C21.8456 13.1601 20.8646 14.1156 19.2434 15.6815C17.8487 17.0286 15.0266 18.285 15.0266 18.285V19.9343C15.0627 21.7937 15.0003 22.1412 14.5449 22.613C14.2519 22.9166 13.9401 22.9902 12.9068 22.9997C11.534 23.0125 11.1521 22.552 11.0904 20.8099L11.0477 19.3693H8.74693L8.70423 20.8027C8.64258 22.5359 8.26069 22.994 6.88784 22.9814C5.85445 22.9718 5.5427 22.8986 5.24967 22.5966C4.79429 22.1272 4.73183 21.7815 4.76793 19.9314V18.2905C4.76793 18.2905 2.93176 16.6198 2.19339 15.2456C0.391269 11.8916 0.730555 8.83286 2.53767 5.48159Z" fill="white"/>
</svg>
